<mxfile host="Electron" modified="2023-11-01T17:12:49.087Z" agent="Mozilla/5.0 (Windows NT 10.0; Win64; x64) AppleWebKit/537.36 (KHTML, like Gecko) draw.io/22.0.3 Chrome/114.0.5735.289 Electron/25.8.4 Safari/537.36" etag="dbsJUBccX3hUeSp6K0V0" version="22.0.3" type="device">
  <diagram name="PÃ¡gina-1" id="xAZSt5TI-ZzOJert3PsQ">
    <mxGraphModel dx="197" dy="611" grid="1" gridSize="10" guides="1" tooltips="1" connect="1" arrows="1" fold="1" page="1" pageScale="1" pageWidth="827" pageHeight="1169" math="0" shadow="0">
      <root>
        <mxCell id="0" />
        <mxCell id="1" parent="0" />
        <mxCell id="0GXtEyLdDbQHU_EjRycV-2" style="edgeStyle=orthogonalEdgeStyle;rounded=0;orthogonalLoop=1;jettySize=auto;html=1;exitX=0.5;exitY=0;exitDx=0;exitDy=0;entryX=0.5;entryY=1;entryDx=0;entryDy=0;endArrow=none;endFill=0;labelBackgroundColor=none;strokeColor=#A8201A;fontColor=default;" parent="1" source="0GXtEyLdDbQHU_EjRycV-3" target="0GXtEyLdDbQHU_EjRycV-24" edge="1">
          <mxGeometry relative="1" as="geometry" />
        </mxCell>
        <mxCell id="0GXtEyLdDbQHU_EjRycV-3" value="Monitor" style="rounded=1;whiteSpace=wrap;html=1;labelBackgroundColor=none;fillColor=#FAE5C7;strokeColor=#0F8B8D;fontColor=#143642;" parent="1" vertex="1">
          <mxGeometry x="1098" y="1355" width="120" height="40" as="geometry" />
        </mxCell>
        <mxCell id="0GXtEyLdDbQHU_EjRycV-4" style="edgeStyle=orthogonalEdgeStyle;rounded=0;orthogonalLoop=1;jettySize=auto;html=1;exitX=1;exitY=0.5;exitDx=0;exitDy=0;endArrow=none;endFill=0;entryX=0;entryY=0.5;entryDx=0;entryDy=0;labelBackgroundColor=none;strokeColor=#A8201A;fontColor=default;" parent="1" source="0GXtEyLdDbQHU_EjRycV-5" target="0GXtEyLdDbQHU_EjRycV-6" edge="1">
          <mxGeometry relative="1" as="geometry">
            <mxPoint x="1531" y="815" as="targetPoint" />
          </mxGeometry>
        </mxCell>
        <mxCell id="0GXtEyLdDbQHU_EjRycV-5" value="Tiempo Funcionamiento Instalacion Educativa" style="rounded=1;whiteSpace=wrap;html=1;labelBackgroundColor=none;fillColor=#FAE5C7;strokeColor=#0F8B8D;fontColor=#143642;" parent="1" vertex="1">
          <mxGeometry x="1091" y="835" width="120" height="40" as="geometry" />
        </mxCell>
        <mxCell id="0GXtEyLdDbQHU_EjRycV-6" value="&lt;span style=&quot;font-weight: normal;&quot;&gt;Instalacion Educativa&lt;br&gt;&lt;/span&gt;" style="rounded=1;whiteSpace=wrap;html=1;labelBackgroundColor=none;fillColor=#FAE5C7;strokeColor=#0F8B8D;fontStyle=1;fontColor=#143642;" parent="1" vertex="1">
          <mxGeometry x="1412" y="834" width="120" height="40" as="geometry" />
        </mxCell>
        <mxCell id="0GXtEyLdDbQHU_EjRycV-7" style="edgeStyle=orthogonalEdgeStyle;rounded=0;orthogonalLoop=1;jettySize=auto;html=1;exitX=0;exitY=0.5;exitDx=0;exitDy=0;entryX=1;entryY=0.5;entryDx=0;entryDy=0;endArrow=none;endFill=0;labelBackgroundColor=none;strokeColor=#A8201A;fontColor=default;" parent="1" source="0GXtEyLdDbQHU_EjRycV-8" target="0GXtEyLdDbQHU_EjRycV-24" edge="1">
          <mxGeometry relative="1" as="geometry" />
        </mxCell>
        <mxCell id="0GXtEyLdDbQHU_EjRycV-8" value="Coordinador" style="rounded=1;whiteSpace=wrap;html=1;labelBackgroundColor=none;fillColor=#FAE5C7;strokeColor=#0F8B8D;fontColor=#143642;" parent="1" vertex="1">
          <mxGeometry x="1538" y="1185" width="120" height="40" as="geometry" />
        </mxCell>
        <mxCell id="0GXtEyLdDbQHU_EjRycV-9" style="edgeStyle=orthogonalEdgeStyle;rounded=0;orthogonalLoop=1;jettySize=auto;html=1;entryX=0.5;entryY=1;entryDx=0;entryDy=0;endArrow=none;endFill=0;labelBackgroundColor=none;strokeColor=#A8201A;fontColor=default;" parent="1" source="0GXtEyLdDbQHU_EjRycV-10" target="0GXtEyLdDbQHU_EjRycV-5" edge="1">
          <mxGeometry relative="1" as="geometry">
            <Array as="points">
              <mxPoint x="1150" y="905" />
            </Array>
          </mxGeometry>
        </mxCell>
        <mxCell id="0GXtEyLdDbQHU_EjRycV-10" value="Horario Persona Encargada" style="rounded=1;whiteSpace=wrap;html=1;labelBackgroundColor=none;fillColor=#FAE5C7;strokeColor=#0F8B8D;fontColor=#143642;" parent="1" vertex="1">
          <mxGeometry x="1098" y="1025" width="120" height="40" as="geometry" />
        </mxCell>
        <mxCell id="0GXtEyLdDbQHU_EjRycV-11" value="1..1" style="text;html=1;align=center;verticalAlign=middle;resizable=0;points=[];autosize=1;strokeColor=none;fillColor=none;labelBackgroundColor=none;fontColor=#143642;" parent="1" vertex="1">
          <mxGeometry x="1505" y="1203" width="40" height="30" as="geometry" />
        </mxCell>
        <mxCell id="0GXtEyLdDbQHU_EjRycV-13" value="Pertenece-&amp;gt;" style="text;html=1;align=center;verticalAlign=middle;resizable=0;points=[];autosize=1;strokeColor=none;fillColor=none;labelBackgroundColor=none;fontColor=#143642;" parent="1" vertex="1">
          <mxGeometry x="1277" y="850" width="90" height="30" as="geometry" />
        </mxCell>
        <mxCell id="0GXtEyLdDbQHU_EjRycV-14" value="&amp;lt;-Tiene" style="text;html=1;align=center;verticalAlign=middle;resizable=0;points=[];autosize=1;strokeColor=none;fillColor=none;labelBackgroundColor=none;fontColor=#143642;" parent="1" vertex="1">
          <mxGeometry x="1292" y="830" width="60" height="30" as="geometry" />
        </mxCell>
        <mxCell id="0GXtEyLdDbQHU_EjRycV-15" value="1..1" style="text;html=1;align=center;verticalAlign=middle;resizable=0;points=[];autosize=1;strokeColor=none;fillColor=none;labelBackgroundColor=none;fontColor=#143642;" parent="1" vertex="1">
          <mxGeometry x="1380" y="846" width="40" height="30" as="geometry" />
        </mxCell>
        <mxCell id="0GXtEyLdDbQHU_EjRycV-16" value="0..*" style="text;html=1;align=center;verticalAlign=middle;resizable=0;points=[];autosize=1;strokeColor=none;fillColor=none;labelBackgroundColor=none;fontColor=#143642;" parent="1" vertex="1">
          <mxGeometry x="1201" y="830" width="40" height="30" as="geometry" />
        </mxCell>
        <mxCell id="0GXtEyLdDbQHU_EjRycV-17" style="edgeStyle=orthogonalEdgeStyle;rounded=0;orthogonalLoop=1;jettySize=auto;html=1;endArrow=none;endFill=0;labelBackgroundColor=none;strokeColor=#A8201A;fontColor=default;" parent="1" source="0GXtEyLdDbQHU_EjRycV-18" target="0GXtEyLdDbQHU_EjRycV-5" edge="1">
          <mxGeometry relative="1" as="geometry" />
        </mxCell>
        <mxCell id="0GXtEyLdDbQHU_EjRycV-18" value="Dia Semanal" style="rounded=1;whiteSpace=wrap;html=1;labelBackgroundColor=none;fillColor=#FAE5C7;strokeColor=#0F8B8D;fontColor=#143642;" parent="1" vertex="1">
          <mxGeometry x="840" y="836" width="120" height="40" as="geometry" />
        </mxCell>
        <mxCell id="0GXtEyLdDbQHU_EjRycV-19" value="&amp;lt;- Esta asociado" style="text;html=1;align=center;verticalAlign=middle;resizable=0;points=[];autosize=1;strokeColor=none;fillColor=none;rotation=90;labelBackgroundColor=none;fontColor=#143642;" parent="1" vertex="1">
          <mxGeometry x="1111" y="930" width="110" height="30" as="geometry" />
        </mxCell>
        <mxCell id="0GXtEyLdDbQHU_EjRycV-20" value="1..1" style="text;html=1;align=center;verticalAlign=middle;resizable=0;points=[];autosize=1;strokeColor=none;fillColor=none;labelBackgroundColor=none;fontColor=#143642;" parent="1" vertex="1">
          <mxGeometry x="1146" y="866" width="40" height="30" as="geometry" />
        </mxCell>
        <mxCell id="0GXtEyLdDbQHU_EjRycV-21" value="Tiene -&amp;gt;" style="text;html=1;align=center;verticalAlign=middle;resizable=0;points=[];autosize=1;strokeColor=none;fillColor=none;rotation=90;labelBackgroundColor=none;fontColor=#143642;" parent="1" vertex="1">
          <mxGeometry x="1104" y="930" width="70" height="30" as="geometry" />
        </mxCell>
        <mxCell id="0GXtEyLdDbQHU_EjRycV-22" value="0..*" style="text;html=1;align=center;verticalAlign=middle;resizable=0;points=[];autosize=1;strokeColor=none;fillColor=none;labelBackgroundColor=none;fontColor=#143642;" parent="1" vertex="1">
          <mxGeometry x="1119" y="1003" width="40" height="30" as="geometry" />
        </mxCell>
        <mxCell id="0GXtEyLdDbQHU_EjRycV-23" style="edgeStyle=orthogonalEdgeStyle;rounded=0;orthogonalLoop=1;jettySize=auto;html=1;exitX=0.5;exitY=0;exitDx=0;exitDy=0;entryX=0.5;entryY=1;entryDx=0;entryDy=0;endArrow=none;endFill=0;labelBackgroundColor=none;strokeColor=#A8201A;fontColor=default;" parent="1" source="0GXtEyLdDbQHU_EjRycV-24" target="0GXtEyLdDbQHU_EjRycV-10" edge="1">
          <mxGeometry relative="1" as="geometry" />
        </mxCell>
        <mxCell id="0GXtEyLdDbQHU_EjRycV-24" value="Persona Encargada" style="rounded=1;whiteSpace=wrap;html=1;labelBackgroundColor=none;fillColor=#FAE5C7;strokeColor=#0F8B8D;fontColor=#143642;" parent="1" vertex="1">
          <mxGeometry x="1098" y="1185" width="120" height="40" as="geometry" />
        </mxCell>
        <mxCell id="0GXtEyLdDbQHU_EjRycV-25" value="Esta-&amp;gt;" style="text;html=1;align=center;verticalAlign=middle;resizable=0;points=[];autosize=1;strokeColor=none;fillColor=none;rotation=-90;labelBackgroundColor=none;fontColor=#143642;" parent="1" vertex="1">
          <mxGeometry x="1139" y="1125" width="60" height="30" as="geometry" />
        </mxCell>
        <mxCell id="0GXtEyLdDbQHU_EjRycV-26" value="1..*" style="text;html=1;align=center;verticalAlign=middle;resizable=0;points=[];autosize=1;strokeColor=none;fillColor=none;labelBackgroundColor=none;fontColor=#143642;" parent="1" vertex="1">
          <mxGeometry x="1149" y="1065" width="40" height="30" as="geometry" />
        </mxCell>
        <mxCell id="0GXtEyLdDbQHU_EjRycV-27" value="Tiene-&amp;gt;" style="text;html=1;align=center;verticalAlign=middle;resizable=0;points=[];autosize=1;strokeColor=none;fillColor=none;rotation=90;labelBackgroundColor=none;fontColor=#143642;" parent="1" vertex="1">
          <mxGeometry x="1119" y="1100" width="60" height="30" as="geometry" />
        </mxCell>
        <mxCell id="0GXtEyLdDbQHU_EjRycV-28" value="Es-&amp;gt;" style="text;html=1;align=center;verticalAlign=middle;resizable=0;points=[];autosize=1;strokeColor=none;fillColor=none;rotation=-90;labelBackgroundColor=none;fontColor=#143642;" parent="1" vertex="1">
          <mxGeometry x="1141" y="1277" width="50" height="30" as="geometry" />
        </mxCell>
        <mxCell id="0GXtEyLdDbQHU_EjRycV-29" value="1..1" style="text;html=1;align=center;verticalAlign=middle;resizable=0;points=[];autosize=1;strokeColor=none;fillColor=none;labelBackgroundColor=none;fontColor=#143642;" parent="1" vertex="1">
          <mxGeometry x="1124" y="1162" width="40" height="30" as="geometry" />
        </mxCell>
        <mxCell id="0GXtEyLdDbQHU_EjRycV-30" value="1..1" style="text;html=1;align=center;verticalAlign=middle;resizable=0;points=[];autosize=1;strokeColor=none;fillColor=none;labelBackgroundColor=none;fontColor=#143642;" parent="1" vertex="1">
          <mxGeometry x="1149" y="1220" width="40" height="30" as="geometry" />
        </mxCell>
        <mxCell id="0GXtEyLdDbQHU_EjRycV-31" value="Se asocia-&amp;gt;" style="text;html=1;align=center;verticalAlign=middle;resizable=0;points=[];autosize=1;strokeColor=none;fillColor=none;rotation=90;labelBackgroundColor=none;fontColor=#143642;" parent="1" vertex="1">
          <mxGeometry x="1102" y="1278" width="90" height="30" as="geometry" />
        </mxCell>
        <mxCell id="0GXtEyLdDbQHU_EjRycV-32" value="1..1" style="text;html=1;align=center;verticalAlign=middle;resizable=0;points=[];autosize=1;strokeColor=none;fillColor=none;labelBackgroundColor=none;fontColor=#143642;" parent="1" vertex="1">
          <mxGeometry x="1124" y="1335" width="40" height="30" as="geometry" />
        </mxCell>
        <mxCell id="0GXtEyLdDbQHU_EjRycV-33" value="&amp;lt;-Es" style="text;html=1;align=center;verticalAlign=middle;resizable=0;points=[];autosize=1;strokeColor=none;fillColor=none;labelBackgroundColor=none;fontColor=#143642;" parent="1" vertex="1">
          <mxGeometry x="1362" y="1179" width="50" height="30" as="geometry" />
        </mxCell>
        <mxCell id="0GXtEyLdDbQHU_EjRycV-34" value="Se Asocia-&amp;gt;" style="text;html=1;align=center;verticalAlign=middle;resizable=0;points=[];autosize=1;strokeColor=none;fillColor=none;labelBackgroundColor=none;fontColor=#143642;" parent="1" vertex="1">
          <mxGeometry x="1352" y="1200" width="90" height="30" as="geometry" />
        </mxCell>
        <mxCell id="0GXtEyLdDbQHU_EjRycV-35" value="1..1" style="text;html=1;align=center;verticalAlign=middle;resizable=0;points=[];autosize=1;strokeColor=none;fillColor=none;labelBackgroundColor=none;fontColor=#143642;" parent="1" vertex="1">
          <mxGeometry x="1211" y="1180" width="40" height="30" as="geometry" />
        </mxCell>
        <mxCell id="0GXtEyLdDbQHU_EjRycV-37" value="Se asocia-&amp;gt;" style="text;html=1;align=center;verticalAlign=middle;resizable=0;points=[];autosize=1;strokeColor=none;fillColor=none;labelBackgroundColor=none;fontColor=#143642;" parent="1" vertex="1">
          <mxGeometry x="981" y="850" width="90" height="30" as="geometry" />
        </mxCell>
        <mxCell id="0GXtEyLdDbQHU_EjRycV-38" value="0..*" style="text;html=1;align=center;verticalAlign=middle;resizable=0;points=[];autosize=1;strokeColor=none;fillColor=none;labelBackgroundColor=none;fontColor=#143642;" parent="1" vertex="1">
          <mxGeometry x="1058" y="850" width="40" height="30" as="geometry" />
        </mxCell>
        <mxCell id="0GXtEyLdDbQHU_EjRycV-39" value="&amp;lt;-Tiene" style="text;html=1;align=center;verticalAlign=middle;resizable=0;points=[];autosize=1;strokeColor=none;fillColor=none;labelBackgroundColor=none;fontColor=#143642;" parent="1" vertex="1">
          <mxGeometry x="989" y="834" width="60" height="30" as="geometry" />
        </mxCell>
        <mxCell id="0GXtEyLdDbQHU_EjRycV-40" value="1..1" style="text;html=1;align=center;verticalAlign=middle;resizable=0;points=[];autosize=1;strokeColor=none;fillColor=none;labelBackgroundColor=none;fontColor=#143642;" parent="1" vertex="1">
          <mxGeometry x="957" y="836" width="40" height="30" as="geometry" />
        </mxCell>
      </root>
    </mxGraphModel>
  </diagram>
</mxfile>
